<mxfile host="app.diagrams.net" modified="2023-10-09T07:53:57.889Z" agent="Mozilla/5.0 (X11; Linux x86_64) AppleWebKit/537.36 (KHTML, like Gecko) Chrome/117.0.0.0 Safari/537.36" etag="Gr--WudpgzuNsssZKETe" version="22.0.4" type="github">
  <diagram name="get payload" id="wS8osY54Nz1R1Sjlonv2">
    <mxGraphModel dx="1168" dy="1126" grid="1" gridSize="10" guides="1" tooltips="1" connect="1" arrows="1" fold="1" page="1" pageScale="1" pageWidth="1600" pageHeight="1200" math="0" shadow="0">
      <root>
        <mxCell id="0" />
        <mxCell id="1" parent="0" />
        <mxCell id="2aScVzRB6i6m41ho2P9O-1" value="execution.Service" style="swimlane;fontStyle=0;childLayout=stackLayout;horizontal=1;startSize=30;horizontalStack=0;resizeParent=1;resizeParentMax=0;resizeLast=0;collapsible=1;marginBottom=0;whiteSpace=wrap;html=1;" vertex="1" parent="1">
          <mxGeometry x="130" y="280" width="140" height="120" as="geometry" />
        </mxCell>
        <mxCell id="2aScVzRB6i6m41ho2P9O-2" value="GetPayload" style="text;strokeColor=none;fillColor=none;align=left;verticalAlign=middle;spacingLeft=4;spacingRight=4;overflow=hidden;points=[[0,0.5],[1,0.5]];portConstraint=eastwest;rotatable=0;whiteSpace=wrap;html=1;" vertex="1" parent="2aScVzRB6i6m41ho2P9O-1">
          <mxGeometry y="30" width="140" height="30" as="geometry" />
        </mxCell>
        <mxCell id="2aScVzRB6i6m41ho2P9O-3" value="Item 2" style="text;strokeColor=none;fillColor=none;align=left;verticalAlign=middle;spacingLeft=4;spacingRight=4;overflow=hidden;points=[[0,0.5],[1,0.5]];portConstraint=eastwest;rotatable=0;whiteSpace=wrap;html=1;" vertex="1" parent="2aScVzRB6i6m41ho2P9O-1">
          <mxGeometry y="60" width="140" height="30" as="geometry" />
        </mxCell>
        <mxCell id="2aScVzRB6i6m41ho2P9O-4" value="Item 3" style="text;strokeColor=none;fillColor=none;align=left;verticalAlign=middle;spacingLeft=4;spacingRight=4;overflow=hidden;points=[[0,0.5],[1,0.5]];portConstraint=eastwest;rotatable=0;whiteSpace=wrap;html=1;" vertex="1" parent="2aScVzRB6i6m41ho2P9O-1">
          <mxGeometry y="90" width="140" height="30" as="geometry" />
        </mxCell>
        <mxCell id="2aScVzRB6i6m41ho2P9O-6" value="" style="endArrow=classic;html=1;rounded=0;" edge="1" parent="1" source="2aScVzRB6i6m41ho2P9O-2">
          <mxGeometry relative="1" as="geometry">
            <mxPoint x="440" y="620" as="sourcePoint" />
            <mxPoint x="820" y="325" as="targetPoint" />
          </mxGeometry>
        </mxCell>
        <mxCell id="2aScVzRB6i6m41ho2P9O-7" value="Label" style="edgeLabel;resizable=0;html=1;align=center;verticalAlign=middle;" connectable="0" vertex="1" parent="2aScVzRB6i6m41ho2P9O-6">
          <mxGeometry relative="1" as="geometry" />
        </mxCell>
        <mxCell id="2aScVzRB6i6m41ho2P9O-8" value="CallContext: GetPayloadMethodV3" style="edgeLabel;html=1;align=center;verticalAlign=middle;resizable=0;points=[];" vertex="1" connectable="0" parent="2aScVzRB6i6m41ho2P9O-6">
          <mxGeometry x="0.04" y="-1" relative="1" as="geometry">
            <mxPoint as="offset" />
          </mxGeometry>
        </mxCell>
        <mxCell id="2aScVzRB6i6m41ho2P9O-9" value="validator.Server" style="swimlane;fontStyle=0;childLayout=stackLayout;horizontal=1;startSize=30;horizontalStack=0;resizeParent=1;resizeParentMax=0;resizeLast=0;collapsible=1;marginBottom=0;whiteSpace=wrap;html=1;" vertex="1" parent="1">
          <mxGeometry x="690" y="550" width="140" height="120" as="geometry" />
        </mxCell>
        <mxCell id="2aScVzRB6i6m41ho2P9O-10" value="getLocalPayloadAndBlobs" style="text;strokeColor=none;fillColor=none;align=left;verticalAlign=middle;spacingLeft=4;spacingRight=4;overflow=hidden;points=[[0,0.5],[1,0.5]];portConstraint=eastwest;rotatable=0;whiteSpace=wrap;html=1;" vertex="1" parent="2aScVzRB6i6m41ho2P9O-9">
          <mxGeometry y="30" width="140" height="30" as="geometry" />
        </mxCell>
        <mxCell id="2aScVzRB6i6m41ho2P9O-11" value="BuildBlockParallel" style="text;strokeColor=none;fillColor=none;align=left;verticalAlign=middle;spacingLeft=4;spacingRight=4;overflow=hidden;points=[[0,0.5],[1,0.5]];portConstraint=eastwest;rotatable=0;whiteSpace=wrap;html=1;" vertex="1" parent="2aScVzRB6i6m41ho2P9O-9">
          <mxGeometry y="60" width="140" height="30" as="geometry" />
        </mxCell>
        <mxCell id="2aScVzRB6i6m41ho2P9O-12" value="GetBeaconBlock" style="text;strokeColor=none;fillColor=none;align=left;verticalAlign=middle;spacingLeft=4;spacingRight=4;overflow=hidden;points=[[0,0.5],[1,0.5]];portConstraint=eastwest;rotatable=0;whiteSpace=wrap;html=1;" vertex="1" parent="2aScVzRB6i6m41ho2P9O-9">
          <mxGeometry y="90" width="140" height="30" as="geometry" />
        </mxCell>
        <mxCell id="2aScVzRB6i6m41ho2P9O-24" value="" style="curved=1;endArrow=classic;html=1;rounded=0;" edge="1" parent="2aScVzRB6i6m41ho2P9O-9" source="2aScVzRB6i6m41ho2P9O-11" target="2aScVzRB6i6m41ho2P9O-10">
          <mxGeometry width="50" height="50" relative="1" as="geometry">
            <mxPoint x="240" y="75" as="sourcePoint" />
            <mxPoint x="290" y="25" as="targetPoint" />
            <Array as="points">
              <mxPoint x="290" y="75" />
              <mxPoint x="240" y="25" />
            </Array>
          </mxGeometry>
        </mxCell>
        <mxCell id="2aScVzRB6i6m41ho2P9O-30" value="" style="curved=1;endArrow=classic;html=1;rounded=0;" edge="1" parent="2aScVzRB6i6m41ho2P9O-9" source="2aScVzRB6i6m41ho2P9O-12" target="2aScVzRB6i6m41ho2P9O-10">
          <mxGeometry width="50" height="50" relative="1" as="geometry">
            <mxPoint x="160" y="100" as="sourcePoint" />
            <mxPoint x="210" y="50" as="targetPoint" />
            <Array as="points">
              <mxPoint x="210" y="100" />
              <mxPoint x="160" y="50" />
            </Array>
          </mxGeometry>
        </mxCell>
        <mxCell id="2aScVzRB6i6m41ho2P9O-13" value="" style="curved=1;endArrow=classic;html=1;rounded=0;" edge="1" parent="1" source="2aScVzRB6i6m41ho2P9O-28" target="2aScVzRB6i6m41ho2P9O-2">
          <mxGeometry width="50" height="50" relative="1" as="geometry">
            <mxPoint x="510" y="600" as="sourcePoint" />
            <mxPoint x="560" y="550" as="targetPoint" />
            <Array as="points" />
          </mxGeometry>
        </mxCell>
        <mxCell id="2aScVzRB6i6m41ho2P9O-14" value="&lt;h1&gt;getLocalPayloadAndBlobs&lt;/h1&gt;&lt;div&gt;This returns the local execution payload of a given slot&lt;br&gt;&lt;/div&gt;" style="text;html=1;strokeColor=none;fillColor=none;spacing=5;spacingTop=-20;whiteSpace=wrap;overflow=hidden;rounded=0;" vertex="1" parent="1">
          <mxGeometry x="550" y="410" width="360" height="120" as="geometry" />
        </mxCell>
        <mxCell id="2aScVzRB6i6m41ho2P9O-15" value="ProposerSlotIndexCache" style="swimlane;fontStyle=0;childLayout=stackLayout;horizontal=1;startSize=30;horizontalStack=0;resizeParent=1;resizeParentMax=0;resizeLast=0;collapsible=1;marginBottom=0;whiteSpace=wrap;html=1;" vertex="1" parent="1">
          <mxGeometry x="170" y="730" width="140" height="120" as="geometry" />
        </mxCell>
        <mxCell id="2aScVzRB6i6m41ho2P9O-16" value="GetProposerPayloadIDs" style="text;strokeColor=none;fillColor=none;align=left;verticalAlign=middle;spacingLeft=4;spacingRight=4;overflow=hidden;points=[[0,0.5],[1,0.5]];portConstraint=eastwest;rotatable=0;whiteSpace=wrap;html=1;" vertex="1" parent="2aScVzRB6i6m41ho2P9O-15">
          <mxGeometry y="30" width="140" height="30" as="geometry" />
        </mxCell>
        <mxCell id="2aScVzRB6i6m41ho2P9O-17" value="Item 2" style="text;strokeColor=none;fillColor=none;align=left;verticalAlign=middle;spacingLeft=4;spacingRight=4;overflow=hidden;points=[[0,0.5],[1,0.5]];portConstraint=eastwest;rotatable=0;whiteSpace=wrap;html=1;" vertex="1" parent="2aScVzRB6i6m41ho2P9O-15">
          <mxGeometry y="60" width="140" height="30" as="geometry" />
        </mxCell>
        <mxCell id="2aScVzRB6i6m41ho2P9O-18" value="Item 3" style="text;strokeColor=none;fillColor=none;align=left;verticalAlign=middle;spacingLeft=4;spacingRight=4;overflow=hidden;points=[[0,0.5],[1,0.5]];portConstraint=eastwest;rotatable=0;whiteSpace=wrap;html=1;" vertex="1" parent="2aScVzRB6i6m41ho2P9O-15">
          <mxGeometry y="90" width="140" height="30" as="geometry" />
        </mxCell>
        <mxCell id="2aScVzRB6i6m41ho2P9O-19" value="" style="endArrow=classic;html=1;rounded=0;entryX=0.371;entryY=-0.033;entryDx=0;entryDy=0;entryPerimeter=0;fillColor=#d5e8d4;strokeColor=#82b366;" edge="1" parent="1" source="2aScVzRB6i6m41ho2P9O-9" target="2aScVzRB6i6m41ho2P9O-15">
          <mxGeometry width="50" height="50" relative="1" as="geometry">
            <mxPoint x="510" y="600" as="sourcePoint" />
            <mxPoint x="560" y="550" as="targetPoint" />
          </mxGeometry>
        </mxCell>
        <mxCell id="2aScVzRB6i6m41ho2P9O-20" value="" style="curved=1;endArrow=classic;html=1;rounded=0;" edge="1" parent="1" source="2aScVzRB6i6m41ho2P9O-26" target="2aScVzRB6i6m41ho2P9O-16">
          <mxGeometry width="50" height="50" relative="1" as="geometry">
            <mxPoint x="470" y="760" as="sourcePoint" />
            <mxPoint x="520" y="710" as="targetPoint" />
            <Array as="points">
              <mxPoint x="330" y="610" />
              <mxPoint x="470" y="710" />
            </Array>
          </mxGeometry>
        </mxCell>
        <mxCell id="2aScVzRB6i6m41ho2P9O-21" value="" style="endArrow=none;dashed=1;html=1;dashPattern=1 3;strokeWidth=2;rounded=0;" edge="1" parent="1" source="2aScVzRB6i6m41ho2P9O-22" target="2aScVzRB6i6m41ho2P9O-2">
          <mxGeometry width="50" height="50" relative="1" as="geometry">
            <mxPoint x="510" y="600" as="sourcePoint" />
            <mxPoint x="560" y="550" as="targetPoint" />
          </mxGeometry>
        </mxCell>
        <mxCell id="2aScVzRB6i6m41ho2P9O-23" value="" style="endArrow=none;dashed=1;html=1;dashPattern=1 3;strokeWidth=2;rounded=0;" edge="1" parent="1" source="2aScVzRB6i6m41ho2P9O-16" target="2aScVzRB6i6m41ho2P9O-22">
          <mxGeometry width="50" height="50" relative="1" as="geometry">
            <mxPoint x="239" y="760" as="sourcePoint" />
            <mxPoint x="201" y="340" as="targetPoint" />
          </mxGeometry>
        </mxCell>
        <mxCell id="2aScVzRB6i6m41ho2P9O-22" value="get payload id&lt;br&gt;" style="text;html=1;align=center;verticalAlign=middle;resizable=0;points=[];autosize=1;strokeColor=none;fillColor=none;" vertex="1" parent="1">
          <mxGeometry x="170" y="600" width="100" height="30" as="geometry" />
        </mxCell>
        <mxCell id="2aScVzRB6i6m41ho2P9O-27" value="" style="curved=1;endArrow=classic;html=1;rounded=0;" edge="1" parent="1" source="2aScVzRB6i6m41ho2P9O-10" target="2aScVzRB6i6m41ho2P9O-26">
          <mxGeometry width="50" height="50" relative="1" as="geometry">
            <mxPoint x="690" y="597" as="sourcePoint" />
            <mxPoint x="293" y="760" as="targetPoint" />
            <Array as="points" />
          </mxGeometry>
        </mxCell>
        <mxCell id="2aScVzRB6i6m41ho2P9O-26" value="1. get propser payload ids" style="text;html=1;align=center;verticalAlign=middle;resizable=0;points=[];autosize=1;strokeColor=none;fillColor=none;" vertex="1" parent="1">
          <mxGeometry x="380" y="600" width="160" height="30" as="geometry" />
        </mxCell>
        <mxCell id="2aScVzRB6i6m41ho2P9O-29" value="" style="curved=1;endArrow=classic;html=1;rounded=0;" edge="1" parent="1" source="2aScVzRB6i6m41ho2P9O-10" target="2aScVzRB6i6m41ho2P9O-28">
          <mxGeometry width="50" height="50" relative="1" as="geometry">
            <mxPoint x="690" y="591" as="sourcePoint" />
            <mxPoint x="199" y="340" as="targetPoint" />
            <Array as="points">
              <mxPoint x="190" y="560" />
            </Array>
          </mxGeometry>
        </mxCell>
        <mxCell id="2aScVzRB6i6m41ho2P9O-28" value="2. get payload with payload id" style="text;html=1;align=center;verticalAlign=middle;resizable=0;points=[];autosize=1;strokeColor=none;fillColor=none;" vertex="1" parent="1">
          <mxGeometry x="330" y="430" width="180" height="30" as="geometry" />
        </mxCell>
        <mxCell id="2aScVzRB6i6m41ho2P9O-31" value="&lt;h1&gt;GetBeaconBlock&lt;/h1&gt;&lt;div&gt;GetBeaconBlock is called by a proposer during its assigned slot to request a block to sign&lt;br&gt;&lt;/div&gt;" style="text;html=1;strokeColor=none;fillColor=none;spacing=5;spacingTop=-20;whiteSpace=wrap;overflow=hidden;rounded=0;" vertex="1" parent="1">
          <mxGeometry x="520" y="720" width="270" height="110" as="geometry" />
        </mxCell>
      </root>
    </mxGraphModel>
  </diagram>
</mxfile>
